<svg width="17" height="17" viewBox="0 0 17 17" fill="none" xmlns="http://www.w3.org/2000/svg">
<path fill-rule="evenodd" clip-rule="evenodd" d="M9.10715 0H7.89285V5.37651L5.87878 0.391495L4.75291 0.846375L6.81917 5.96053L2.91891 2.06027L2.06028 2.91891L5.7985 6.65712L0.954049 4.54054L0.46789 5.65326L5.59389 7.89285H0V9.10715H5.59388L0.467892 11.3467L0.954049 12.4595L5.7985 10.3429L2.06028 14.0811L2.91891 14.9397L6.81917 11.0395L4.75291 16.1537L5.87878 16.6085L7.89285 11.6235V17H9.10715V11.6235L11.1212 16.6085L12.2471 16.1537L10.1809 11.0395L14.0811 14.9397L14.9397 14.0811L11.2015 10.3429L16.046 12.4595L16.5321 11.3467L11.4061 9.10715H17V7.89285H11.4061L16.5321 5.65326L16.046 4.54054L11.2015 6.65712L14.9397 2.9189L14.0811 2.06027L10.1809 5.96052L12.2471 0.846375L11.1212 0.391495L9.10715 5.37651V0Z" fill="#222222"/>
</svg>
