<svg width="57" height="54" viewBox="0 0 57 54" fill="none" xmlns="http://www.w3.org/2000/svg">
<path d="M52.6485 23.3156C57.6045 20.4601 56.6327 17.3284 50.8021 17.5126C54.7863 13.4597 53.0372 10.7885 47.4981 12.3544C50.3162 7.47255 47.7896 5.26189 42.8336 8.20943C44.1941 2.86702 41.1816 1.30113 37.1973 5.354C37.1002 -0.264746 33.699 -0.90952 30.8808 4.06445C29.2288 -1.37007 25.7305 -1.37007 24.4672 4.15656C21.3575 -0.541077 18.1507 0.380029 18.345 5.90667C14.0692 2.13013 11.2511 3.78812 12.9031 9.13054C7.75273 6.55144 5.42049 8.8542 8.53015 13.5518C2.89389 12.2623 1.24188 15.1177 5.51767 18.8943C-0.215771 19.0785 -1.09036 22.1181 3.96283 24.6972C-1.47907 26.2631 -1.28472 29.487 4.35154 30.6844C-0.604479 33.5398 0.367291 36.6716 6.1979 36.4874C2.21365 40.5403 3.96283 43.2115 9.50192 41.6456C6.68379 46.5274 9.21039 48.7381 14.1664 45.7906C12.8059 51.133 15.8184 52.6989 19.8027 48.646C19.8998 54.2647 23.301 54.9095 26.1192 49.9355C27.7712 55.3701 31.2695 55.3701 32.5328 49.8434C35.6425 54.5411 38.8493 53.62 38.655 48.0933C42.9308 51.8699 45.7489 50.2119 44.0969 44.8695C49.2473 47.4486 51.5795 45.1458 48.4698 40.4482C54.1061 41.7377 55.7581 38.8823 51.4823 35.1057C57.2158 34.9215 58.0904 31.8819 53.0372 29.3028C58.4791 27.6448 58.2847 24.513 52.6485 23.3156Z" fill="#222222"/>
</svg>
