<svg width="15" height="14" viewBox="0 0 15 14" fill="none" xmlns="http://www.w3.org/2000/svg">
<path fill-rule="evenodd" clip-rule="evenodd" d="M8.03572 0H6.96428V4.42772L5.18716 0.322407L4.19374 0.697015L6.01691 4.90867L2.57551 1.6967L1.81789 2.40381L5.11633 5.48234L0.841808 3.73927L0.412844 4.65562L4.93579 6.5H0V7.50001H4.93578L0.412846 9.34437L0.841808 10.2607L5.11632 8.51767L1.81789 11.5962L2.57551 12.3033L6.01691 9.09132L4.19374 13.303L5.18716 13.6776L6.96428 9.57229V14H8.03572V9.57229L9.81285 13.6776L10.8062 13.303L8.98312 9.09132L12.4245 12.3033L13.1821 11.5962L9.88365 8.51767L14.1582 10.2607L14.5871 9.34437L10.0642 7.50001H15V6.5H10.0642L14.5871 4.65562L14.1582 3.73927L9.88365 5.48234L13.1821 2.4038L12.4245 1.6967L8.98312 4.90867L10.8062 0.697015L9.81285 0.322407L8.03572 4.42772V0Z" fill="#E4E1D9"/>
</svg>
