<svg width="78" height="75" viewBox="0 0 78 75" fill="none" xmlns="http://www.w3.org/2000/svg">
<path fill-rule="evenodd" clip-rule="evenodd" d="M41.7858 0H36.2143V23.7199L26.9732 1.72718L21.8075 3.73401L31.2879 26.2965L13.3926 9.08944L9.45305 12.8775L26.6049 29.3697L4.3774 20.0318L2.14679 24.9408L25.6661 34.8214H0V40.1786H25.6661L2.1468 50.0591L4.3774 54.9683L26.6049 45.6304L9.45305 62.1225L13.3926 65.9104L31.2879 48.7035L21.8075 71.2661L26.9732 73.2728L36.2143 51.2801V75H41.7858V51.2801L51.0268 73.2728L56.1924 71.2661L46.7122 48.7035L64.6074 65.9104L68.5468 62.1225L51.395 45.6304L73.6226 54.9683L75.8531 50.0591L52.3341 40.1786H78V34.8214H52.3337L75.8531 24.9408L73.6226 20.0318L51.395 29.3697L68.5468 12.8775L64.6074 9.08944L46.7122 26.2964L56.1924 3.73401L51.0268 1.72718L41.7858 23.7199V0Z" fill="#E4E1D9"/>
</svg>
