<svg width="38" height="37" viewBox="0 0 38 37" fill="none" xmlns="http://www.w3.org/2000/svg">
<path d="M35.099 15.9755C38.403 14.019 37.7551 11.8732 33.8681 11.9994C36.5242 9.22241 35.3581 7.39214 31.6654 8.46506C33.5441 5.12008 31.8597 3.60537 28.5557 5.62498C29.4627 1.96444 27.4544 0.891518 24.7982 3.66848C24.7334 -0.1814 22.466 -0.62319 20.5872 2.7849C19.4859 -0.938754 17.1536 -0.938754 16.3114 2.84802C14.2383 -0.370738 12.1004 0.26039 12.23 4.04716C9.37949 1.45953 7.50073 2.59556 8.60207 6.25611C5.16849 4.48895 3.61366 6.06677 5.68677 9.28553C1.92926 8.40195 0.827921 10.3584 3.67844 12.9461C-0.143848 13.0723 -0.726909 15.155 2.64189 16.9222C-0.986048 17.9951 -0.856478 20.204 2.90103 21.0245C-0.402986 22.981 0.24486 25.1268 4.13194 25.0006C1.47577 27.7776 2.64189 29.6079 6.33461 28.5349C4.45586 31.8799 6.14026 33.3946 9.44427 31.375C8.53729 35.0356 10.5456 36.1085 13.2018 33.3315C13.2666 37.1814 15.534 37.6232 17.4128 34.2151C18.5141 37.9388 20.8464 37.9388 21.6886 34.152C23.7617 37.3707 25.8996 36.7396 25.77 32.9528C28.6205 35.5405 30.4993 34.4044 29.3979 30.7439C32.8315 32.511 34.3863 30.9332 32.3132 27.7145C36.0707 28.5981 37.1721 26.6416 34.3216 24.0539C38.1438 23.9277 38.7269 21.845 35.3581 20.0778C38.986 18.9418 38.8565 16.796 35.099 15.9755Z" fill="#E4E1D9"/>
</svg>
