<svg width="72" height="68" viewBox="0 0 72 68" fill="none" xmlns="http://www.w3.org/2000/svg">
<path d="M46.8937 41.8948C46.8933 48.2374 40.6125 48.0904 39.9484 48.0904L27.1575 48.0896L27.1583 35.8725L39.9492 35.8733C46.6791 35.8738 46.8938 40.6445 46.8937 41.8948ZM38.9644 30.9575C39.0703 30.9575 45.0428 31.1074 45.0431 25.5276C45.0433 23.2065 44.4884 20.163 38.965 20.1627L27.1593 20.1619L27.1586 30.9567L38.9644 30.9575ZM71.5161 11.199L71.5133 55.8647C71.5039 58.8237 70.2568 61.659 68.0444 63.7512C65.8319 65.8435 62.8339 67.0226 59.7052 67.0311L12.4789 67.0281C9.35021 67.0192 6.35236 65.8397 4.14017 63.7472C1.92798 61.6547 0.681225 58.8192 0.672235 55.8602L0.675072 11.1945C0.684437 8.23546 1.93155 5.40017 4.14401 3.30794C6.35647 1.21571 9.35446 0.0365749 12.4831 0.0280937L59.7095 0.0310932C62.8382 0.0399718 65.836 1.21949 68.0482 3.312C70.2604 5.40451 71.5071 8.23996 71.5161 11.199ZM54.128 42.7821C54.1282 39.5562 53.077 34.0646 46.3725 32.7092L46.3725 32.6C49.9953 31.1376 52.2773 28.3755 52.2775 24.2792C52.2776 23.2324 52.5944 14.5912 40.0075 14.5904L19.9253 14.5891L19.9228 53.6719C40.1995 53.6732 42.0401 53.9246 45.7925 52.8196C48.0395 52.1587 54.1275 50.1312 54.128 42.7821Z" fill="#C2BDBD"/>
</svg>
