<svg width="41" height="39" viewBox="0 0 41 39" fill="none" xmlns="http://www.w3.org/2000/svg">
<path d="M37.8699 16.839C41.4348 14.7768 40.7358 12.5149 36.5419 12.648C39.4077 9.72092 38.1495 7.79172 34.1653 8.92263C36.1924 5.39684 34.375 3.80026 30.8101 5.92903C31.7887 2.07062 29.6218 0.939708 26.756 3.86678C26.6861 -0.191205 24.2396 -0.656876 22.2125 2.93544C21.0242 -0.989497 18.5079 -0.989497 17.5992 3.00196C15.3624 -0.390778 13.0557 0.274465 13.1955 4.26593C10.12 1.53843 8.0929 2.73587 9.28118 6.59428C5.57653 4.7316 3.89895 6.3947 6.13572 9.78745C2.08157 8.8561 0.893283 10.9184 3.96885 13.6459C-0.155204 13.7789 -0.784297 15.9742 2.85046 17.8369C-1.06389 18.9678 -0.924095 21.2962 3.13006 22.161C-0.434801 24.2232 0.264191 26.4851 4.45814 26.352C1.59228 29.2791 2.85046 31.2083 6.83471 30.0774C4.80764 33.6032 6.62501 35.1997 10.1899 33.071C9.21128 36.9294 11.3782 38.0603 14.244 35.1332C14.3139 39.1912 16.7604 39.6569 18.7875 36.0646C19.9758 39.9895 22.4921 39.9895 23.4008 35.998C25.6376 39.3908 27.9443 38.7255 27.8045 34.7341C30.88 37.4616 32.9071 36.2641 31.7188 32.4057C35.4235 34.2684 37.1011 32.6053 34.8643 29.2126C38.9184 30.1439 40.1067 28.0816 37.0312 25.3541C41.1552 25.2211 41.7843 23.0258 38.1495 21.1631C42.0639 19.9657 41.9241 17.7038 37.8699 16.839Z" fill="url(#paint0_linear_260_18)"/>
<defs>
<linearGradient id="paint0_linear_260_18" x1="20.5" y1="0" x2="20.5" y2="39" gradientUnits="userSpaceOnUse">
<stop stop-color="white"/>
<stop offset="0.492497" stop-color="#999999"/>
</linearGradient>
</defs>
</svg>
