<svg width="72" height="68" viewBox="0 0 72 68" fill="none" xmlns="http://www.w3.org/2000/svg">
<path d="M0.201172 0.0136719L6.63583 59.2074L35.6174 67.0159L64.6 59.2111L71.0422 0.0181712L0.201172 0.0136719ZM57.9617 11.9816L57.0757 19.0555L35.8045 26.4271L35.7492 26.442L56.3189 26.4434L53.9561 48.3678L35.8397 52.6588L17.6132 48.2907L16.4332 37.2386L25.4544 37.2392L26.0444 42.9671L35.748 44.9568L45.8393 42.6543L46.5225 33.4418L15.8431 33.3651L15.8431 33.3502L15.8062 33.3651L15.1425 26.4407L35.8234 19.4579L37.0226 19.0542L14.3497 19.0527L13.2802 11.9788L57.9617 11.9816Z" fill="#C2BDBD"/>
</svg>
