<svg width="244" height="225" viewBox="0 0 244 225" fill="none" xmlns="http://www.w3.org/2000/svg">
<rect width="244" height="225" rx="32" fill="#222222"/>
<g clip-path="url(#clip0_645_8)">
<path fill-rule="evenodd" clip-rule="evenodd" d="M129.143 11H114.857V74.2531L91.1621 15.6058L77.9166 20.9573L102.226 81.1239L56.3401 35.2385L46.2386 45.3401L90.2177 89.3191L33.2241 64.4181L27.5046 77.5089L87.8105 103.857H22V118.143H87.8104L27.5046 144.491L33.2241 157.582L90.2176 132.681L46.2386 176.66L56.3401 186.761L102.226 140.876L77.9166 201.043L91.1621 206.394L114.857 147.747V211H129.143V147.747L152.838 206.394L166.083 201.043L141.775 140.876L187.66 186.761L197.761 176.66L153.782 132.681L210.776 157.582L216.495 144.491L156.19 118.143H222V103.857H156.189L216.495 77.5089L210.776 64.4181L153.782 89.3191L197.761 45.34L187.66 35.2385L141.775 81.1238L166.083 20.9573L152.838 15.6058L129.143 74.2531V11Z" fill="#E4E1D9"/>
</g>
<defs>
<clipPath id="clip0_645_8">
<rect width="200" height="200" fill="white" transform="translate(22 11)"/>
</clipPath>
</defs>
</svg>
