<svg width="277" height="248" viewBox="0 0 277 248" fill="none" xmlns="http://www.w3.org/2000/svg">
<g clip-path="url(#clip0_633_5)">
<path d="M240.921 0.00447285H36.1641C35.9649 0.0014911 35.7658 9.54647e-08 35.5666 0C15.9222 0.00248492 0.000218599 14.245 0.00244164 31.8114V214.914C0.0674656 232.749 16.2195 247.193 36.1641 247.251H240.921C260.633 246.905 276.429 232.545 276.49 214.914V31.8114C276.49 14.245 260.565 0.00447285 240.921 0.00447285Z" fill="#222222"/>
</g>
<g clip-path="url(#clip1_633_5)">
<path fill-rule="evenodd" clip-rule="evenodd" d="M147.766 18.1468H132.029V84.5064L105.928 22.9788L91.3372 28.5932L118.115 91.7147L67.5694 43.5757L56.442 54.1734L104.888 100.312L42.1057 74.1884L35.8053 87.9221L102.236 115.564H29.7417V130.552H102.236L35.8054 158.194L42.1057 171.928L104.888 145.804L56.442 191.943L67.5694 202.54L118.115 154.401L91.3372 217.523L105.928 223.137L132.029 161.61V227.969H147.766V161.61L173.868 223.137L188.458 217.523L161.681 154.401L212.226 202.54L223.353 191.943L174.908 145.804L237.69 171.928L243.99 158.194L177.56 130.552H250.054V115.564H177.559L243.99 87.9221L237.69 74.1884L174.908 100.312L223.353 54.1733L212.226 43.5757L161.681 91.7146L188.458 28.5932L173.868 22.9788L147.766 84.5064V18.1468Z" fill="#E4E1D9"/>
</g>
<defs>
<clipPath id="clip0_633_5">
<rect width="276.492" height="247.25" fill="white"/>
</clipPath>
<clipPath id="clip1_633_5">
<rect width="220.312" height="209.822" fill="white" transform="translate(29.7417 18.1468)"/>
</clipPath>
</defs>
</svg>
