<svg width="55" height="68" viewBox="0 0 55 68" fill="none" xmlns="http://www.w3.org/2000/svg">
<path d="M41.4753 22.3745C45.0628 22.3747 48.5034 21.1982 51.0403 19.1038C53.5772 17.0094 55.0025 14.1686 55.0027 11.2065C55.0028 8.2443 53.5779 5.40337 51.0413 3.30864C48.5047 1.21392 45.0642 0.0369854 41.4767 0.0367576L14.4233 0.0350393C10.8379 0.0348116 7.39926 1.21062 4.86387 3.3038C2.32848 5.39697 0.904003 8.23606 0.903815 11.1965C0.903627 14.1569 2.32774 16.9962 4.86287 19.0897C7.398 21.1832 10.8365 22.3594 14.4219 22.3596C10.8344 22.3594 7.39373 23.5359 4.85685 25.6303C2.31997 27.7247 0.894661 30.5655 0.894473 33.5276C0.894285 36.4898 2.31923 39.3307 4.85585 41.4255C7.39246 43.5202 10.833 44.6971 14.4205 44.6973C11.7451 44.6959 9.12937 45.3495 6.90397 46.5755C4.67857 47.8016 2.94348 49.5449 1.9181 51.5852C0.892716 53.6255 0.623106 55.871 1.14336 58.0379C1.66362 60.2047 2.95037 62.1955 4.8409 63.7585C6.73144 65.3215 9.14084 66.3866 11.7644 66.819C14.388 67.2514 17.108 67.0317 19.5803 66.1877C22.0526 65.3437 24.1663 63.9133 25.6541 62.0774C27.1418 60.2415 27.9368 58.0826 27.9385 55.8736L27.9406 22.3736L41.4753 22.3745ZM41.4753 22.3745C38.8015 22.3743 36.1877 23.0288 33.9645 24.2552C31.7413 25.4816 30.0084 27.2248 28.9851 29.2643C27.9618 31.3039 27.6939 33.5483 28.2154 35.7136C28.7369 37.8789 30.0243 39.8679 31.9148 41.4291C33.8054 42.9903 36.2141 44.0535 38.8365 44.4844C41.4588 44.9153 44.177 44.6944 46.6473 43.8497C49.1176 43.005 51.229 41.5745 52.7146 39.7389C54.2002 37.9034 54.9932 35.7453 54.9933 33.5376C54.9931 30.5773 53.5688 27.7382 51.0338 25.6448C48.4988 23.5514 45.0605 22.375 41.4753 22.3745Z" fill="#C2BDBD"/>
</svg>
