<svg width="35" height="33" viewBox="0 0 35 33" fill="none" xmlns="http://www.w3.org/2000/svg">
<g clip-path="url(#clip0_258_72)">
<path fill-rule="evenodd" clip-rule="evenodd" d="M8.875 0H0.125001V8.25C0.125001 12.4512 3.45565 15.919 7.76317 16.434C3.39526 16.8963 7.38544e-07 20.3904 3.82475e-07 24.6322L0 32.8822H8.75C13.2058 32.8822 16.8838 29.7417 17.43 25.6804C17.9203 29.7988 21.6261 33 26.125 33H34.875V24.75C34.875 20.5488 31.5443 17.081 27.2368 16.566C31.6048 16.1037 35 12.6096 35 8.36786V0.117857L26.25 0.117857C21.7941 0.117857 18.1162 3.25819 17.57 7.31957C17.0797 3.20125 13.3738 0 8.875 0Z" fill="#222222"/>
</g>
<defs>
<clipPath id="clip0_258_72">
<rect width="35" height="33" fill="white"/>
</clipPath>
</defs>
</svg>
