<svg width="69" height="67" viewBox="0 0 69 67" fill="none" xmlns="http://www.w3.org/2000/svg">
<path d="M60.9787 0.30856L7.32088 0.305152C3.2813 0.304896 0.00370435 3.48349 0.00345551 7.40155L0.000150059 59.4452C-9.87886e-05 63.3633 3.2771 66.5423 7.31668 66.5425L60.9745 66.5459C65.0141 66.5462 68.2917 63.3676 68.2919 59.4495L68.2952 7.40589C68.2955 3.48783 65.0183 0.308817 60.9787 0.30856ZM37.1648 51.9663C37.1644 58.4126 33.2618 61.3546 27.5759 61.3542C22.4388 61.3539 19.4664 58.7811 17.9422 55.6613L23.171 52.6012C24.177 54.3311 25.0915 55.7949 27.3019 55.795C29.4055 55.7951 30.747 54.9968 30.7472 51.8772L30.7485 30.7196L37.1661 30.7201L37.1648 51.9663ZM52.3469 61.3558C46.3866 61.3554 42.5301 58.6051 40.6554 54.9975L45.8842 52.0703C47.256 54.2438 49.0546 55.8555 52.2101 55.8557C54.8625 55.8559 56.5698 54.5697 56.57 52.7807C56.5701 50.6516 54.8324 49.8975 51.8904 48.6406L50.2899 47.9751C45.6559 46.0676 42.5921 43.6574 42.5924 38.5861C42.5927 33.914 46.2666 30.3658 51.983 30.3662C56.0683 30.3664 58.995 31.7416 61.0984 35.3493L56.0983 38.4539C55.0009 36.5465 53.8119 35.7924 51.9674 35.7923C50.0925 35.7922 48.9034 36.9453 48.9033 38.4534C48.9032 40.3164 50.0921 41.0705 52.8512 42.2387L54.4517 42.9041C59.9088 45.1666 62.9726 47.488 62.9723 52.6924C62.972 58.2812 58.4291 61.3562 52.3469 61.3558Z" fill="#C2BDBD"/>
</svg>
