<svg xmlns="http://www.w3.org/2000/svg" xmlns:xlink="http://www.w3.org/1999/xlink" version="1.1" x="0px" y="0px" viewBox="0 0 100 125" enable-background="new 0 0 100 100" xml:space="preserve"><path d="M97.375,36.334l-25.824,5.139c-0.801,0.158-0.9-0.08-0.221-0.535l21.891-14.627c0.684-0.455,0.861-1.373,0.41-2.055  l-3.023-4.52c-0.453-0.682-1.373-0.865-2.051-0.41L66.662,33.953c-0.68,0.453-0.863,0.271-0.406-0.41l14.629-21.891  c0.451-0.682,0.268-1.604-0.41-2.055l-4.523-3.021c-0.68-0.455-1.604-0.271-2.057,0.408L59.268,28.875  c-0.453,0.682-0.693,0.582-0.533-0.223l5.135-25.82c0.162-0.803-0.357-1.582-1.164-1.742l-5.334-1.061  c-0.801-0.158-1.578,0.363-1.738,1.164l-5.137,25.82c-0.16,0.805-0.42,0.805-0.58,0l-5.135-25.82  c-0.16-0.801-0.938-1.322-1.744-1.164L37.703,1.09c-0.801,0.16-1.32,0.939-1.16,1.742l5.135,25.822  c0.16,0.803-0.08,0.902-0.537,0.223L26.518,6.986c-0.457-0.682-1.377-0.865-2.057-0.41l-4.521,3.021  c-0.68,0.455-0.863,1.373-0.41,2.055l14.627,21.891c0.453,0.682,0.273,0.863-0.41,0.41L11.857,19.326  c-0.68-0.455-1.6-0.271-2.057,0.41l-3.018,4.518c-0.457,0.68-0.273,1.602,0.41,2.055l21.889,14.629  c0.68,0.455,0.58,0.693-0.221,0.535L3.039,36.334c-0.803-0.158-1.584,0.363-1.746,1.168l-1.055,5.33  c-0.16,0.803,0.357,1.582,1.164,1.742l25.818,5.137c0.801,0.16,0.801,0.42,0,0.58L1.398,55.426c-0.803,0.158-1.32,0.941-1.16,1.742  l1.061,5.334c0.156,0.801,0.938,1.322,1.74,1.164l25.822-5.135c0.801-0.16,0.9,0.078,0.221,0.533L7.188,73.691  c-0.678,0.453-0.861,1.375-0.404,2.055l3.018,4.521c0.457,0.68,1.377,0.863,2.057,0.408l21.895-14.625  c0.678-0.455,0.863-0.275,0.404,0.406L19.529,88.35c-0.453,0.68-0.27,1.6,0.41,2.055l4.521,3.02c0.68,0.457,1.6,0.273,2.057-0.408  l14.623-21.889c0.457-0.682,0.697-0.584,0.537,0.219l-5.135,25.822c-0.16,0.803,0.359,1.582,1.164,1.742l5.33,1.061  c0.807,0.162,1.584-0.359,1.744-1.162l5.135-25.824c0.16-0.803,0.42-0.803,0.58,0l5.137,25.822c0.16,0.805,0.938,1.326,1.738,1.162  l5.334-1.059c0.807-0.16,1.326-0.939,1.164-1.742l-5.135-25.822c-0.16-0.803,0.08-0.9,0.533-0.223l14.627,21.893  c0.453,0.682,1.377,0.863,2.057,0.408l4.523-3.02c0.678-0.455,0.861-1.375,0.404-2.057L66.256,66.457  c-0.457-0.682-0.273-0.865,0.406-0.406l21.895,14.625c0.678,0.455,1.598,0.273,2.051-0.408l3.023-4.521  c0.457-0.682,0.273-1.602-0.41-2.057L71.33,59.064c-0.68-0.455-0.58-0.697,0.221-0.533l25.824,5.135  c0.801,0.158,1.58-0.363,1.74-1.164l1.061-5.334c0.16-0.805-0.359-1.584-1.166-1.742l-25.816-5.135c-0.803-0.16-0.803-0.42,0-0.578  l25.816-5.139c0.807-0.156,1.326-0.939,1.166-1.742L99.115,37.5C98.955,36.697,98.176,36.176,97.375,36.334z"/><text x="0" y="115" fill="#000000" font-size="5px" font-weight="bold" font-family="'Helvetica Neue', Helvetica, Arial-Unicode, Arial, Sans-serif">Created by Álvaro Bueno</text><text x="0" y="120" fill="#000000" font-size="5px" font-weight="bold" font-family="'Helvetica Neue', Helvetica, Arial-Unicode, Arial, Sans-serif">from the Noun Project</text></svg>